<?xml version="1.0" encoding="utf-8" ?><svg xmlns="http://www.w3.org/2000/svg" xmlns:xlink="http://www.w3.org/1999/xlink" width="1200" height="1200" viewBox="0 0 1200 1200"><path fill="white" d="M0 0L1200 0L1200 1200L0 1200L0 0Z"/><path fill="#5E71B6" d="M582.119 564.575C603.99 563.915 629.68 563.806 651.578 564.163C648.106 576.275 642.768 590.693 638.643 602.757L615.66 670.102L586.025 756.883C584.092 762.535 572.965 797.216 570.572 799.942L569.471 799.892C567.634 797.758 566.95 794.611 566.062 791.83L513.651 637.927L498.467 593.533C495.402 584.586 491.538 574.143 489.196 565.127C497.328 564.635 509.273 564.981 517.605 564.968C539.111 565.052 560.616 564.92 582.119 564.575Z"/><path fill="#93A0D2" d="M570.558 398.769C570.068 398.42 649.379 552.393 651.262 560.232C647.82 562.343 580.307 561.958 569.971 561.959L488.407 561.94C493.997 553.096 505.075 529.357 510.139 519.222L549.094 441.224C555.618 428.161 563.483 411.301 570.558 398.769Z"/><path fill="#223575" d="M656.458 562.833C662.197 563.84 672.403 566.814 678.287 568.344L722.002 579.722C731.505 582.195 741.966 585.203 751.539 586.848C736.516 606.092 719.843 625.726 704.285 644.633L615.338 752.76L587.27 786.913C582.101 793.196 575.491 801.6 569.838 807.251C572.217 800.298 576.701 791.892 579.512 783.979L628.076 644.903C637.178 618.826 648.642 588.69 656.458 562.833Z"/><path fill="#223575" d="M484.009 566.126C484.34 566.109 485.022 566.285 485.384 566.358C488.255 572.747 492.827 587.318 495.302 594.438L514.226 648.711L549.459 749.614C551.894 756.592 567.847 800.753 567.573 804.099C565.37 803.741 530.69 760.634 526.32 755.327L438.98 649.159C423.287 630.081 405.393 609.235 390.429 589.794C399.951 588.366 415.001 584.017 424.596 581.526L484.009 566.126Z"/><path fill="#5E71B6" d="M562.799 400.772L564.65 401.057L565.165 402.2C564.17 407.119 548.909 435.072 545.537 441.723L486.264 558.583C472.444 542.671 458.723 526.673 445.101 510.591C427.819 490.145 409.567 470.247 392.471 449.869C397.273 447.524 407.298 444.962 412.775 443.414L443.383 434.77C482.882 423.603 523.558 412.543 562.799 400.772Z"/><path fill="#5E71B6" d="M575.345 398.747C578.371 398.662 739.016 443.45 748.584 447.882C743.668 454.034 736.804 461.441 731.531 467.467C720.161 480.34 708.926 493.331 697.829 506.439L654.766 556.565C649.379 546.983 643.366 534.23 638.31 524.267L604.567 457.67L585.504 420.322C582.983 415.378 576.588 403.522 575.345 398.747Z"/><path fill="#181529" d="M425.548 860.408C434.598 859.6 447.527 861.708 455.293 866.589C465.676 873.116 469.038 880.228 471.942 891.412C462.565 892.499 453.178 893.5 443.783 894.415C439.908 880.966 426.478 878.399 415.406 886.762C414.127 887.729 412.439 891.157 412.69 892.859C414.604 905.812 435.681 903.899 445.151 907.711C461.616 912.041 473.373 921.101 473.505 939.831C473.71 968.902 451.317 976.447 427.002 976.488C401.117 975.667 386.403 967.117 381.981 940.588C391.221 939.757 400.455 938.859 409.682 937.897L410.068 939.863C412.999 955.338 434.341 958.498 442.847 949.114C444.707 947.086 445.628 944.369 445.383 941.628C444.439 930.831 430.943 929.832 422.645 927.841C412.769 925.471 404.119 924.238 395.98 917.641C382.918 907.052 381.826 885.411 392.915 873.089C401.479 863.579 413.32 861.145 425.548 860.408Z"/><path fill="#223575" d="M390.038 452.711C390.805 453.078 392.02 453.752 392.574 454.414C421.943 489.484 453.295 522.705 480.474 559.586C481.553 561.051 482.161 561.675 481.906 563.455C475.073 564.989 468.267 566.64 461.491 568.407C437.621 574.316 412.126 582.931 388.932 588.243C389.583 557.817 389.844 527.383 389.717 496.949C389.717 487.783 389.033 460.452 390.038 452.711Z"/><path fill="#223575" d="M749.6 450.952L750.642 451.831C751.257 456.145 751.01 463.473 751.008 468.177L751.055 494.978C750.975 525.002 751.23 555.026 751.821 585.045C745.854 582.928 733.464 579.938 727.08 578.236L679.238 565.548C672.586 563.709 664.701 562.113 658.36 559.967L658.326 559.273C661.109 555.024 666.458 549.346 669.871 545.29L694.342 516.238L729.368 474.747C735.592 467.344 743.093 457.846 749.6 450.952Z"/><path fill="#181529" d="M518.908 890.812C529.888 889.37 547.921 890.471 556.527 897.921C567.069 907.046 564.753 924.63 564.782 937.289C564.812 949.883 564.601 961.48 565.547 974.097C559.814 974.092 545.298 974.483 540.274 973.788C539.15 971.981 540.585 970.983 539.406 968.713C536.591 969.301 533.464 971.908 530.89 973.02C523.909 976.039 512.766 976.537 505.383 975.249C496.99 973.785 491.533 970.491 486.771 963.755C483.582 957.681 482.357 950.331 484.305 943.578C489.189 926.643 509.102 923.207 524.15 922.124C528.232 921.83 536.346 922.237 539.508 920.578C540.761 917.897 538.529 912.283 536.105 910.841C531.918 908.35 526.181 907.969 521.58 909.415C516.526 911.005 514.529 912.704 512.202 917.349L511.837 918.093C503.445 916.927 494.774 915.379 486.389 913.993C492.848 897.43 502.448 893.238 518.908 890.812Z"/><path fill="white" d="M528.952 938.899C531.299 938.549 537.175 938.478 539.8 938.375C539.825 951.797 533.779 955.519 521.336 957.609C517.262 957.431 514.131 957.162 510.642 954.73C507.34 952.427 507.997 948.736 510.199 946.011C514.936 940.151 522.018 939.586 528.952 938.899Z"/><path fill="#181529" d="M624.398 860.406C629.62 859.92 637.38 860.136 642.774 860.106L676.261 859.953L676.225 879.87C659.894 880.421 643.425 879.577 627.095 879.849C618.071 879.999 618.347 885.364 618.177 892.591C625.443 892.664 632.707 892.344 639.938 891.635L639.954 914.039C634.076 913.077 624.375 913.11 618.244 913.054L618.251 944.824C618.238 954.98 618.039 963.966 619.486 974.054L591.614 974.105C593.578 957.836 592.798 930.374 592.771 913.054C587.17 912.965 579.645 913.317 574.15 914.05L574.174 891.631C580.951 892.454 585.944 892.51 592.74 892.623C592.574 867.5 600.232 861.923 624.398 860.406Z"/><path fill="#181529" d="M739.272 891.41C745.513 890.623 751.551 891.336 757.646 892.601L751.26 916.544C722.524 908.072 716.024 923.189 717.606 948.042C718.137 956.391 717.975 965.504 718.543 974.107L702.653 974.081L691.279 974.151C692.377 960.472 692.174 947.717 692.209 934.038C692.245 919.805 692.363 906.751 691.284 892.542L717.708 892.583L717.695 903.11C724.036 895.451 729.497 892.498 739.272 891.41Z"/><path fill="#181529" d="M648.754 892.566L676.528 892.596C674.957 907.944 675.735 923.104 675.537 938.487C675.383 950.516 675.896 962.1 676.409 974.086L648.806 974.135C650.207 961.178 649.87 946.769 649.856 933.614C649.843 920.382 650.329 905.584 648.754 892.566Z"/><path fill="#181529" d="M501.746 803.508C510.958 802.607 515.003 802.96 523.483 806.836L523.44 814.914C513.817 810.177 500.236 806.892 493.669 818.252C491.424 822.146 490.909 826.801 492.249 831.091C493.44 834.991 496.144 838.251 499.756 840.142C505.484 843.122 511.591 842.116 517.417 840.186L523.921 837.116L523.954 845.404C514.365 849.713 504.735 851.723 494.729 846.659C489.211 843.893 485.054 839.004 483.211 833.113C478.608 818.299 488.055 807.525 501.746 803.508Z"/><path fill="#181529" d="M628.12 803.441L635.965 803.489L635.996 822.903C638.382 820.537 642.79 817.525 646.127 817.623C659.137 818.007 656.392 841.051 656.313 848.973L648.43 849.008L648.428 835.4C648.624 825.273 644.679 820.219 635.968 828.636C635.778 835.059 635.965 842.485 635.982 848.984L628.078 849.016L628.12 803.441Z"/><path fill="#181529" d="M574.593 818.089C587.196 817.442 590.229 824.465 591.361 835.404C586.234 835.484 574.443 834.718 570.297 835.84C570.07 837.332 570.187 838.207 571.073 839.54C575.581 846.318 583.612 843.779 589.312 840.807L590.096 840.545L590.675 841.337C591.442 851.292 575.501 850.824 569.505 847.575C565.763 845.557 563.028 842.075 561.953 837.962C559.283 828.086 564.76 820.112 574.593 818.089Z"/><path fill="white" d="M575.954 823.289C579.422 823.712 583.47 825.426 583.15 829.488C581.298 830.945 581.552 830.449 578.593 830.524C575.191 830.628 573.136 831.159 570.494 829.199C569.431 826.017 573.38 824.342 575.954 823.289Z"/><path fill="#181529" d="M529.218 818.554L557.077 818.574C552.191 826.586 546.41 835.124 541.273 843.061C546.753 843.184 552.07 841.879 556.386 843.817C557.728 845.875 557.225 845.987 557.215 848.976L528.023 848.98L543.856 824.599C538.783 824.444 533.898 825.727 529.972 823.76C528.729 821.714 529.208 821.416 529.218 818.554Z"/><path fill="#181529" d="M609.126 818.135C613.149 818.142 618.587 817.651 621.082 821.16C621.154 823.031 621.382 824.269 620.653 825.988C615.895 825.351 609.366 823.531 605.461 827.283C602.301 830.318 604.034 839.383 607.444 841.732C611.488 844.517 616.849 842.239 620.929 841.73L621.713 841.639C621.794 843.87 621.861 844.55 621.496 846.718C620.161 848.403 620.511 848.073 618.353 848.724C602.615 853.467 589.601 839.774 598.028 824.866C600.237 820.958 604.562 819.058 609.126 818.135Z"/></svg>