<?xml version="1.0" encoding="utf-8" ?><svg xmlns="http://www.w3.org/2000/svg" xmlns:xlink="http://www.w3.org/1999/xlink" width="2388" height="1668" viewBox="0 0 2388 1668"><path fill="white" d="M0 0L2388 0L2388 1668L0 1668L0 0Z"/><path fill="#6170B0" d="M1766.68 398.061L1768.83 395.465L1770.62 395.586C1774.44 400.508 1775.89 406.297 1778.73 411.974C1789.01 432.08 1799.04 452.314 1808.81 472.671L1858.84 574.185C1863.37 583.37 1879.55 614.821 1881.99 622.536L1881.09 624.99C1875.02 629.066 1849.48 624.6 1844.26 627.982C1857.14 628.567 1870.33 627.941 1882.79 628.525C1842.82 738.744 1804.25 851.539 1765.56 962.373C1762.22 964.517 1762.47 964.479 1760.66 967.978C1756.45 964.529 1739.33 942.637 1735.27 937.605L1677.64 866.229L1566.94 729.302C1554.09 713.409 1522.73 676.939 1513.09 661.472C1511.5 659.677 1510.07 659.251 1509.89 656.754C1509.46 651.011 1509.11 627.974 1511.58 624.276C1512.21 593.076 1512.63 561.871 1512.86 530.665C1513.05 511.428 1513.74 489.062 1513.06 470.062L1512.78 467.938C1515.15 466.351 1515.41 466.072 1517.38 463.932L1517.88 463.376C1529.32 459.313 1546.09 455.197 1558.05 451.912L1627.42 432.864L1712.32 409.51C1720.41 407.288 1757.09 395.971 1762.46 397.719L1764.52 399.203L1766.68 398.061Z"/><path fill="#96A0CE" d="M1766.68 398.061L1768.83 395.465L1770.62 395.586C1774.44 400.508 1775.89 406.297 1778.73 411.974C1789.01 432.08 1799.04 452.314 1808.81 472.671L1858.84 574.185C1863.37 583.37 1879.55 614.821 1881.99 622.536L1881.09 624.99C1871.55 623.431 1827.18 624.885 1814.57 624.842L1652 623.6C1660.79 608.25 1670.47 587.894 1678.62 571.921L1727.8 475.653L1753.69 424.981C1756.94 418.601 1764.88 403.937 1766.68 398.061Z"/><path fill="#263470" d="M1513.09 661.472C1530.11 660.211 1574.32 646.509 1592.68 642.719C1601.28 640.944 1640.73 631.005 1646.71 628.661L1721.82 849.295L1747.7 925.399C1750.01 932.209 1761.18 962.286 1760.66 967.978C1756.45 964.529 1739.33 942.637 1735.27 937.605L1677.64 866.229L1566.94 729.302C1554.09 713.409 1522.73 676.939 1513.09 661.472Z"/><path fill="#6170B0" d="M1517.88 463.376C1529.32 459.313 1546.09 455.197 1558.05 451.912L1627.42 432.864L1712.32 409.51C1720.41 407.288 1757.09 395.971 1762.46 397.719C1756.07 413.429 1745.83 430.764 1738.1 446.098C1709.05 503.752 1677.18 560.856 1648.66 618.692L1566.64 521.594C1560.67 514.561 1519.7 468.349 1517.88 463.376Z"/><path fill="#263470" d="M1513.06 470.062C1514.55 469.795 1515.75 469.065 1516.76 470.345C1555.91 519.994 1607.92 569.918 1641.68 623.01L1641.56 625.412C1641.32 625.536 1599.61 636.119 1597.3 636.369C1582.37 637.984 1524.86 659.028 1514.39 657.882C1509.91 654.835 1510.41 650.719 1510.89 645.617C1511.58 638.263 1511.66 631.628 1511.58 624.276C1512.21 593.076 1512.63 561.871 1512.86 530.665C1513.05 511.428 1513.74 489.062 1513.06 470.062Z"/><path fill="#F0F1F6" d="M1762.46 397.719L1764.52 399.203L1766.68 398.061C1764.88 403.937 1756.94 418.601 1753.69 424.981L1727.8 475.653L1678.62 571.921C1670.47 587.894 1660.79 608.25 1652 623.6L1814.57 624.842C1827.18 624.885 1871.55 623.431 1881.09 624.99C1875.02 629.066 1849.48 624.6 1844.26 627.982C1802.22 629.407 1758.88 628.367 1716.8 628.449C1704.57 628.473 1665.07 627.148 1654.96 628.759C1653.68 632.591 1654.8 635.568 1656.16 639.718C1680.19 712.914 1704.56 786.162 1728.8 859.281L1751.81 928.581C1753.78 934.49 1760.74 959.927 1765.56 962.373C1762.22 964.517 1762.47 964.479 1760.66 967.978C1761.18 962.286 1750.01 932.209 1747.7 925.399L1721.82 849.295L1646.71 628.661C1640.73 631.005 1601.28 640.944 1592.68 642.719C1574.32 646.509 1530.11 660.211 1513.09 661.472C1511.5 659.677 1510.07 659.251 1509.89 656.754C1509.46 651.011 1509.11 627.974 1511.58 624.276C1511.66 631.628 1511.58 638.263 1510.89 645.617C1510.41 650.719 1509.91 654.835 1514.39 657.882C1524.86 659.028 1582.37 637.984 1597.3 636.369C1599.61 636.119 1641.32 625.536 1641.56 625.412L1641.68 623.01C1607.92 569.918 1555.91 519.994 1516.76 470.345C1515.75 469.065 1514.55 469.795 1513.06 470.062L1512.78 467.938C1515.15 466.351 1515.41 466.072 1517.38 463.932L1517.88 463.376C1519.7 468.349 1560.67 514.561 1566.64 521.594L1648.66 618.692C1677.18 560.856 1709.05 503.752 1738.1 446.098C1745.83 430.764 1756.07 413.429 1762.46 397.719Z"/><path fill="#171428" d="M670.669 683.377C726.441 682.829 785.389 703.355 802.862 761.695C804.403 766.839 807.923 774.623 805.403 779.557C799.851 781.213 782.693 782.734 776.07 783.362C758.278 785.048 737.958 788.293 720.272 788.573C718.408 780.247 717.119 775.688 711.95 768.066C693.921 741.48 629.484 746.425 625.459 781.976C623.915 814.152 668.977 817.16 691.111 822.161C714.063 827.348 733.601 830.656 754.642 840.415C799.928 861.419 816.47 897.157 812.036 945.214C806.33 1007.05 758.875 1035.43 701.544 1040.98C687.482 1042.34 674.235 1042.99 660.1 1041.55C633.572 1040.74 599.884 1033.37 577.981 1018.56C544.45 995.889 537.615 968.231 530.002 932.018C535.248 931.001 540.729 930.262 546.056 929.909C569.396 928.365 593.085 924.771 616.369 923.361C617.538 938.404 621.084 949.085 632.89 959.484C658.634 982.159 729.063 979.151 725.409 932.949C724.274 905.905 690.568 899.341 668.091 895.074C609.289 883.91 548.016 867.932 540.764 797.195C538.316 773.317 545.556 745.08 561.768 725.873C590.759 691.526 628.975 687.16 670.669 683.377Z"/><path fill="#171428" d="M977.432 776.358C1003.75 775.709 1045.24 781.497 1066.35 797.721C1077.4 806.078 1085.5 817.742 1089.46 831.018C1095.34 850.152 1094.23 878.107 1094.21 898.467L1094.18 970.149C1094.2 989.501 1094.19 1015.9 1096.75 1034.73C1071.22 1035.39 1043.11 1034.8 1017.37 1034.8C1017.41 1029.43 1017.74 1023.81 1016.56 1018.6C1015.18 1017.91 1014.49 1017.5 1012.88 1018.67C977.397 1044.4 920.79 1047.8 881.591 1028.85C863.005 1019.87 851.659 1003.09 845.666 983.238C844.639 980.154 843.674 971.261 843.44 967.7C838.317 889.465 927.319 874.822 986.936 873.372C992.995 873.225 1011.76 873.665 1016.03 870.561C1019.65 861.626 1014.17 842.527 1005 838.84C982.08 829.633 947.91 830.599 934.888 854.447L930.579 862.287C920.677 861.294 905.848 858.333 895.479 856.681C882.872 854.672 864.436 852.311 852.624 848.889C876.994 787.13 917.046 781.321 977.432 776.358Z"/><path fill="white" d="M996.688 925.564C999.423 925.326 1015.73 923.205 1016.3 926.344C1023.89 968.513 979.125 988.548 943.256 982.287C916.272 981.752 913.339 941.05 946.925 932.806C966.562 927.986 975.923 926.872 996.688 925.564Z"/><path fill="#171428" d="M1283.8 683.451C1299.47 682.447 1320.1 683.247 1336.14 683.206L1436.98 682.819C1436.32 699.949 1437.66 725.947 1437.6 744.396C1387.18 746.288 1335.15 743.948 1284.65 744.004C1277.4 744.012 1272.48 745.978 1266.34 749.461C1252.07 773.786 1254.51 788.772 1284.49 783.468C1294.55 781.688 1315.34 781.652 1326.24 781.098L1326.27 849.732C1317.79 849.292 1308.63 847.69 1299.73 847.259C1285.89 846.587 1273.07 846.587 1259.23 846.907C1257.97 878.475 1259 919.284 1259 951.5C1258.88 983.069 1259.89 1003.32 1262.15 1034.83L1177.51 1034.77C1181.18 972.2 1182.14 909.502 1180.41 846.85C1157.01 845.902 1145.52 847.641 1122.8 849.687L1122.81 781.195C1142.98 781.718 1159.62 784.778 1180.38 783.351C1182.04 758.003 1177.43 735.209 1195.93 712.625C1217.55 686.232 1252.92 686.497 1283.8 683.451Z"/><path fill="#263470" d="M1890.94 623.531C1892.18 620.097 2014.8 475.946 2024.07 468.01L2023.15 599.563C2023.16 606.848 2024.51 655.027 2023.37 658.924L2022.83 661.688C2017.97 669.815 1998.04 692.643 1991.32 700.647L1928.99 775.003L1823.42 901.119C1806.4 921.481 1781.01 953.776 1763.25 971.855C1781.61 931.925 1796.28 886.625 1811.21 845.007L1889.58 626.469L1890.94 623.531Z"/><path fill="#263470" d="M1890.94 623.531C1892.18 620.097 2014.8 475.946 2024.07 468.01L2023.15 599.563C2023.16 606.848 2024.51 655.027 2023.37 658.924C1979.58 648.429 1935.84 634.14 1890.94 623.531Z"/><path fill="#F0F1F6" d="M1890.94 623.531C1935.84 634.14 1979.58 648.429 2023.37 658.924L2022.83 661.688C2013.13 660.657 1980.42 651.517 1969.21 648.313C1943.78 641.048 1914.29 634.493 1889.58 626.469L1890.94 623.531Z"/><path fill="#6170B0" d="M1777.07 393.815C1781.89 394.218 1809.1 402.558 1815.24 404.356L1902.55 429.923L1981.1 452.962C1990.37 455.69 2012.96 461.777 2020.75 465.593C1999.32 491.483 1972.58 519.506 1950.04 545.653L1886.7 617.987C1873.36 591.719 1777.64 403.138 1777.07 393.815Z"/><path fill="#171428" d="M1484.26 784.181L1485.84 784.034C1495.42 783.209 1560.95 782.653 1565.17 786.259C1566.53 792.789 1566.18 807.633 1566.32 815.352C1574.77 805.665 1579.4 801.058 1589.79 793.575C1604.05 812.974 1616.89 830.639 1631.77 849.725C1559.88 850.37 1565.84 904.521 1566.02 957.5C1565.94 979.047 1565.67 1014.08 1569.24 1034.62C1547.74 1035.74 1505.21 1035.51 1483.63 1034.57C1484.88 1026.71 1486.19 1018.24 1486.32 1010.27C1487.45 942.843 1487.4 875.223 1486.32 807.796C1486.19 799.816 1484.77 792.098 1484.26 784.181Z"/><path fill="#171428" d="M1353.99 783.803L1438.84 783.86C1431.18 844.2 1438.48 913.761 1435.93 975.014C1435.39 987.973 1440.27 1024.94 1438.06 1034.82C1410.77 1035.46 1381.08 1034.86 1353.6 1034.86C1353.98 1021.08 1356.44 1007.16 1356.48 993.253C1356.64 934.564 1357.58 875.676 1356.18 817.015C1355.92 805.927 1353.67 795.114 1353.99 783.803Z"/><path fill="#171428" d="M909.612 507.505C926.137 506.452 950.724 508.101 964.535 518.749C968.611 521.892 966.921 538.479 966.76 543.944C944.104 532.926 920.223 524.435 895.46 535.502C883.962 540.613 875.061 550.215 870.835 562.067C866.279 574.758 867.044 588.751 872.956 600.87C889.019 633.622 929.309 631.342 957.671 617.466C958.66 617.134 966.941 612.93 968.323 612.249C968.697 620.196 968.447 629.845 968.452 637.92C935.657 652.858 898.888 657.906 867.217 635.352C852.035 624.539 842.494 606.987 840.017 588.519C837.642 570.16 842.565 551.603 853.728 536.835C868.116 518.187 886.82 510.443 909.612 507.505Z"/><path fill="#171428" d="M1289.54 508.668L1313.93 508.656L1314.06 568.633C1322.16 560.399 1330.08 553.889 1342.46 553.355C1356.81 552.621 1373.48 564.76 1375.22 579.666C1377.73 601.265 1376.59 627.098 1376.47 649.075C1368.31 649.068 1360.15 649.014 1352 648.913C1351.57 637.185 1351.89 623.393 1351.87 611.5C1351.91 601.199 1351.86 594.502 1350.8 584.208C1339.19 565.244 1325.61 573.779 1313.99 586.917L1313.95 649.059L1289.3 649.055C1288.75 606.189 1288.03 550.984 1289.54 508.668Z"/><path fill="#171428" d="M1129.7 553.4C1163.98 554.287 1174.89 575.549 1175.48 606.871C1164.12 606.926 1119.6 605.623 1111.79 607.737L1110.59 610.105C1110.64 620.555 1119.61 628.379 1129.08 631.261C1145.19 636.168 1158.69 629.875 1172.69 622.328C1175.53 625.472 1174.54 633.677 1174.47 638.306C1143.08 662.811 1085.79 651.781 1084.15 605.564C1083.1 575.898 1099.51 554.917 1129.7 553.4Z"/><path fill="white" d="M1124.76 571.48C1136.12 569.654 1148.42 573.998 1152.22 585.629C1151.62 589.74 1152.4 587.937 1149.7 591.199C1146.29 592.676 1139.7 592.147 1135.67 592.119C1128.69 592.132 1114.22 594.326 1110.41 589.039C1109.92 581.95 1118.45 573.777 1124.76 571.48Z"/><path fill="#171428" d="M986.505 555.287C1012.7 555.262 1044.82 554.378 1070.55 555.666C1053.99 579.962 1038.37 605.868 1021.72 630.453L1070.71 630.536C1070.79 633.114 1070.86 635.691 1070.91 638.27C1070.97 642.542 1071.52 646.283 1068.88 649.019C1039.55 649.176 1010.22 649.11 980.886 648.82C997.275 624.281 1013.41 599.047 1029.55 574.301C1017.4 573.475 997.61 574.08 984.729 573.843C984.232 567.327 982.688 560.148 986.505 555.287Z"/><path fill="#171428" d="M1236.84 553.439C1249.59 553.724 1256.42 554.837 1268.12 560.201L1268.04 580.168C1238.83 567.959 1208.7 573.311 1216.67 612.317C1222.95 643.088 1263.75 624.468 1269.82 627.986L1270.3 631.75C1270.52 650.687 1264.07 647.574 1247.84 650.066C1176.24 661.056 1166.12 557.205 1236.84 553.439Z"/></svg>